<svg width="742" height="635" viewBox="0 0 742 635" fill="none" xmlns="http://www.w3.org/2000/svg">
<g clip-path="url(#clip0_1_58)">
<rect x="321" y="535" width="100" height="100" fill="#FA0000"/>
<rect x="321" y="428" width="100" height="100" fill="#FA0000"/>
<rect x="428" y="428" width="100" height="100" fill="#FA0000"/>
<rect x="214" y="428" width="100" height="100" fill="#FA0000"/>
<rect x="107" y="321" width="100" height="100" fill="#FA0000"/>
<rect x="214" y="321" width="100" height="100" fill="#FA0000"/>
<rect x="321" y="321" width="100" height="100" fill="#FA0000"/>
<rect x="428" y="321" width="100" height="100" fill="#FA0000"/>
<rect x="535" y="321" width="100" height="100" fill="#FA0000"/>
<rect y="214" width="100" height="100" fill="#FA0000"/>
<rect x="107" y="214" width="100" height="100" fill="#FA0000"/>
<rect x="214" y="214" width="100" height="100" fill="#FA0000"/>
<rect x="321" y="214" width="100" height="100" fill="#FA0000"/>
<rect x="428" y="214" width="100" height="100" fill="#FA0000"/>
<rect x="535" y="214" width="100" height="100" fill="#FA0000"/>
<rect x="642" y="214" width="100" height="100" fill="#FA0000"/>
<rect y="107" width="100" height="100" fill="#FA0000"/>
<rect x="107" y="107" width="100" height="100" fill="#FA0000"/>
<rect x="214" y="107" width="100" height="100" fill="#FA0000"/>
<rect x="321" y="107" width="100" height="100" fill="#FA0000"/>
<rect x="428" y="107" width="100" height="100" fill="#FA0000"/>
<rect x="535" y="107" width="100" height="100" fill="#FA0000"/>
<rect x="642" y="107" width="100" height="100" fill="#FA0000"/>
<rect x="107" width="100" height="100" fill="#FA0000"/>
<rect x="214" width="100" height="100" fill="#FA0000"/>
<rect x="428" width="100" height="100" fill="#FA0000"/>
<rect x="535" width="100" height="100" fill="#FA0000"/>
</g>
<defs>
<clipPath id="clip0_1_58">
<rect width="742" height="635" fill="white"/>
</clipPath>
</defs>
</svg>
